<?xml version="1.0" encoding="UTF-8"?>
<svg xmlns="http://www.w3.org/2000/svg" xmlns:xlink="http://www.w3.org/1999/xlink" width="360" height="120" viewBox="0 0 360 120">
  <defs>
    <clipPath id="clip-_360x120">
      <rect width="360" height="120"></rect>
    </clipPath>
  </defs>
  <g id="_360x120" data-name="360x120" clip-path="url(#clip-_360x120)">
    <g id="Group_3" data-name="Group 3" transform="translate(-136.336 -139.739)">
      <g id="Group_2" data-name="Group 2" transform="translate(288.933 149.739)">
        <path id="Path_26" data-name="Path 26" d="M341.413,150.9h1.362c1.106,0,1.633.56,1.633,1.763v.453c0,1.12-.334,1.945-1.688,1.945h-.515v3.284h-.792Zm.792,3.493h.443c.844,0,.967-.518.967-1.292v-.4c0-.6-.132-1.13-.9-1.13h-.512Z" transform="translate(-341.413 -150.516)" fill="#fff"></path>
        <path id="Path_27" data-name="Path 27" d="M353.056,157.665v-7.774h.792v7.774Z" transform="translate(-349.239 -149.841)" fill="#fff"></path>
        <path id="Path_28" data-name="Path 28" d="M360.594,160.806c0,.387.006.815.022.982h-.735a4.008,4.008,0,0,1-.06-.461.913.913,0,0,1-.928.55c-.82,0-1.146-.728-1.146-1.6v-.1a1.592,1.592,0,0,1,1.808-1.738h.246v-.9c0-.514-.087-.839-.532-.839s-.561.336-.561.78v.151h-.782v-.141c0-.792.311-1.465,1.37-1.465.99,0,1.3.619,1.3,1.456Zm-.777-1.737h-.277c-.642,0-1.025.27-1.025,1.088v.1c0,.507.157.915.6.915.522,0,.7-.417.7-1.266Z" transform="translate(-352.392 -153.964)" fill="#fff"></path>
        <path id="Path_29" data-name="Path 29" d="M371.941,160v.078c0,.98-.249,1.8-1.411,1.8-1.107,0-1.378-.767-1.378-1.916v-2.2c0-.961.35-1.734,1.428-1.734,1.16,0,1.362.851,1.362,1.608v.23h-.788v-.2c0-.515-.085-.96-.59-.96-.44,0-.613.33-.613,1v2.434c0,.513.1,1.051.6,1.051.449,0,.6-.3.6-1.019V160Z" transform="translate(-360.058 -153.964)" fill="#fff"></path>
        <path id="Path_30" data-name="Path 30" d="M380.085,151.991h.792v5.674h-.792Zm.005-2.1h.792v1.151h-.792Z" transform="translate(-367.407 -149.841)" fill="#fff"></path>
        <path id="Path_31" data-name="Path 31" d="M385.671,157.842c0-1.139,0-1.447-.011-1.727h.755a4.671,4.671,0,0,1,.032.567,1.021,1.021,0,0,1,1.04-.657c.621,0,1.119.354,1.119,1.4v4.366h-.792v-4.211c0-.549-.185-.827-.6-.827-.475,0-.754.236-.754,1.309v3.729h-.792Z" transform="translate(-371.154 -153.964)" fill="#fff"></path>
        <path id="Path_32" data-name="Path 32" d="M400.289,161.671c0,1.151-.129,2.122-1.548,2.122a1.263,1.263,0,0,1-1.405-1.412v-.028h.8v.034a.645.645,0,0,0,.649.733c.586,0,.713-.437.713-1.254v-.73a.918.918,0,0,1-.96.592c-.866,0-1.2-.632-1.2-1.737v-2.279c0-1,.432-1.687,1.317-1.687a.862.862,0,0,1,.928.584,4.2,4.2,0,0,1,.043-.495h.686c-.011.313-.022.824-.022,1.494Zm-2.154-3.917v2.172c0,.728.19,1.086.619,1.086.646,0,.749-.646.749-1.41v-1.676c0-.652-.069-1.175-.675-1.175C398.341,156.751,398.134,157.109,398.134,157.754Z" transform="translate(-379.002 -153.964)" fill="#fff"></path>
        <path id="Path_33" data-name="Path 33" d="M414.034,158.34l-1.039-7.445h.846c.229,1.811.6,4.941.663,6.114h.016c.1-1.2.61-4.35.859-6.114h.808c.255,1.776.754,4.738.848,6.077h.028c.083-1.274.481-4.257.71-6.077h.809l-1.129,7.445H416.6c-.244-1.741-.7-4.685-.832-5.918h-.016c-.154,1.342-.6,4.2-.862,5.918Z" transform="translate(-389.527 -150.516)" fill="#fff"></path>
        <path id="Path_34" data-name="Path 34" d="M434.024,157.724V160.1c0,1.231-.582,1.78-1.494,1.78s-1.465-.54-1.465-1.749V157.7c0-1.092.576-1.68,1.5-1.68C433.519,156.025,434.024,156.647,434.024,157.724Zm-2.16-.023v2.454c0,.618.208,1.015.683,1.015.441,0,.679-.3.679-1.024V157.7c0-.558-.185-.962-.678-.962S431.864,157.082,431.864,157.7Z" transform="translate(-401.674 -153.964)" fill="#fff"></path>
        <path id="Path_35" data-name="Path 35" d="M442.756,158.071c0-.915.005-1.428-.011-1.931h.756c.011.149.027.506.027.886a1.224,1.224,0,0,1,1.2-.963v.979c-.7.006-1.175.41-1.175,1.436v3.336h-.792Z" transform="translate(-409.524 -153.99)" fill="#fff"></path>
        <path id="Path_36" data-name="Path 36" d="M451.386,154.645h.016c.275-.628.908-1.939,1.243-2.654h.835l-1.071,2.078,1.2,3.6h-.867l-.876-2.825-.482.916v1.909H450.6v-7.774h.787Z" transform="translate(-414.803 -149.841)" fill="#fff"></path>
        <path id="Path_37" data-name="Path 37" d="M460.9,157.563v-4.971h-.6v-.7h.6v-.8c0-.691.26-1.35,1.164-1.35a1.485,1.485,0,0,1,.378.038v.727a1.322,1.322,0,0,0-.255-.023c-.406,0-.494.269-.494.7v.71h.728v.7h-.728v4.971Z" transform="translate(-421.325 -149.739)" fill="#fff"></path>
        <path id="Path_38" data-name="Path 38" d="M470.913,157.724V160.1c0,1.231-.582,1.78-1.494,1.78s-1.465-.54-1.465-1.749V157.7c0-1.092.576-1.68,1.5-1.68C470.407,156.025,470.913,156.647,470.913,157.724Zm-2.16-.023v2.454c0,.618.208,1.015.683,1.015.441,0,.679-.3.679-1.024V157.7c0-.558-.185-.962-.678-.962S468.752,157.082,468.752,157.7Z" transform="translate(-426.469 -153.964)" fill="#fff"></path>
        <path id="Path_39" data-name="Path 39" d="M479.645,158.071c0-.915.005-1.428-.011-1.931h.756c.011.149.027.506.027.886a1.224,1.224,0,0,1,1.2-.963v.979c-.7.006-1.175.41-1.175,1.436v3.336h-.792Z" transform="translate(-434.32 -153.99)" fill="#fff"></path>
        <path id="Path_40" data-name="Path 40" d="M489.816,160v.078c0,.98-.249,1.8-1.411,1.8-1.107,0-1.378-.767-1.378-1.916v-2.2c0-.961.35-1.734,1.428-1.734,1.16,0,1.361.851,1.361,1.608v.23h-.788v-.2c0-.515-.085-.96-.59-.96-.44,0-.613.33-.613,1v2.434c0,.513.1,1.051.6,1.051.449,0,.6-.3.6-1.019V160Z" transform="translate(-439.289 -153.964)" fill="#fff"></path>
        <path id="Path_41" data-name="Path 41" d="M498.412,159.114v.928c0,.565.112,1.152.672,1.152.538,0,.637-.438.637-.981v-.047h.777v.041c0,.658-.153,1.67-1.411,1.67-1.185,0-1.452-.777-1.452-1.929v-2.114c0-.86.3-1.81,1.465-1.81,1.094,0,1.414.812,1.414,1.811v1.279Zm1.335-.647v-.709c0-.529-.085-1.05-.653-1.05-.536,0-.677.443-.677,1.056v.7Z" transform="translate(-446.419 -153.964)" fill="#fff"></path>
        <path id="Path_42" data-name="Path 42" d="M379.236,192.34,378.2,184.9h.846c.229,1.811.6,4.941.663,6.114h.016c.1-1.2.61-4.35.859-6.114h.808c.254,1.776.754,4.738.848,6.077h.028c.083-1.274.481-4.257.71-6.077h.809l-1.129,7.445H381.8c-.244-1.741-.7-4.685-.832-5.918h-.016c-.154,1.342-.6,4.2-.862,5.918Z" transform="translate(-366.138 -173.369)" fill="#fff"></path>
        <path id="Path_43" data-name="Path 43" d="M397.045,193.114v.928c0,.565.112,1.152.672,1.152.538,0,.637-.438.637-.981v-.047h.777v.041c0,.658-.153,1.67-1.411,1.67-1.184,0-1.452-.777-1.452-1.929v-2.114c0-.86.3-1.81,1.465-1.81,1.094,0,1.415.812,1.415,1.811v1.279Zm1.335-.647v-.709c0-.529-.085-1.05-.653-1.05-.536,0-.677.443-.677,1.056v.7Z" transform="translate(-378.284 -176.818)" fill="#fff"></path>
        <path id="Path_44" data-name="Path 44" d="M407.675,191.665v-7.774h.792v7.774Z" transform="translate(-385.952 -172.695)" fill="#fff"></path>
        <path id="Path_45" data-name="Path 45" d="M413.284,191.665v-7.774h.792v7.774Z" transform="translate(-389.722 -172.695)" fill="#fff"></path>
        <path id="Path_46" data-name="Path 46" d="M418.87,183.891h.792v2.622a1.021,1.021,0,0,1,1.013-.611c.815,0,1.153.665,1.153,1.644v2.189c0,1.159-.241,2.007-1.28,2.007a.912.912,0,0,1-.94-.621,4.851,4.851,0,0,1-.032.544h-.718c.016-.321.011-.828.011-1.5Zm2.16,5.981v-2.2c0-.652-.152-1.041-.627-1.041-.643,0-.747.611-.747,1.393v1.743c0,.859.206,1.253.714,1.253C420.8,191.017,421.031,190.659,421.031,189.872Z" transform="translate(-393.469 -172.695)" fill="#fff"></path>
        <path id="Path_47" data-name="Path 47" d="M430.974,193.114v.928c0,.565.113,1.152.672,1.152.538,0,.638-.438.638-.981v-.047h.777v.041c0,.658-.153,1.67-1.411,1.67-1.184,0-1.452-.777-1.452-1.929v-2.114c0-.86.3-1.81,1.465-1.81,1.094,0,1.415.812,1.415,1.811v1.279Zm1.336-.647v-.709c0-.529-.085-1.05-.653-1.05-.536,0-.677.443-.677,1.056v.7Z" transform="translate(-401.09 -176.818)" fill="#fff"></path>
        <path id="Path_48" data-name="Path 48" d="M441.537,185.991h.792v5.674h-.792Zm.005-2.1h.792v1.151h-.792Z" transform="translate(-408.712 -172.695)" fill="#fff"></path>
        <path id="Path_49" data-name="Path 49" d="M447.124,191.842c0-1.139,0-1.447-.012-1.727h.755a4.656,4.656,0,0,1,.033.568,1.021,1.021,0,0,1,1.04-.657c.621,0,1.119.354,1.119,1.4v4.366h-.792v-4.211c0-.549-.185-.827-.6-.827-.475,0-.753.236-.753,1.309v3.729h-.792Z" transform="translate(-412.46 -176.818)" fill="#fff"></path>
        <path id="Path_50" data-name="Path 50" d="M461.74,195.671c0,1.151-.129,2.122-1.548,2.122a1.263,1.263,0,0,1-1.405-1.412v-.028h.8v.034a.645.645,0,0,0,.649.733c.586,0,.713-.437.713-1.254v-.73a.918.918,0,0,1-.96.592c-.866,0-1.2-.632-1.2-1.737v-2.279c0-1,.432-1.687,1.317-1.687a.862.862,0,0,1,.928.584,4.11,4.11,0,0,1,.044-.495h.685c-.011.313-.022.824-.022,1.494Zm-2.154-3.917v2.172c0,.728.189,1.086.619,1.086.646,0,.749-.646.749-1.41v-1.676c0-.652-.069-1.175-.675-1.175C459.793,190.751,459.586,191.109,459.586,191.754Z" transform="translate(-420.307 -176.818)" fill="#fff"></path>
      </g>
      <path id="Path_51" data-name="Path 51" d="M330.1,191.86h-9.556v69.631h5.37V224.619H330.1a6.9,6.9,0,0,0,6.892-6.892V198.752A6.838,6.838,0,0,0,330.1,191.86Zm1.229,25.846a1.508,1.508,0,0,1-1.521,1.521h-4.186V197.208h4.186a1.456,1.456,0,0,1,1.521,1.522Z" transform="translate(-38.454 -28.312)" fill="#fff"></path>
      <path id="Path_52" data-name="Path 52" d="M276.9,258.427h5.37v41.811a6.894,6.894,0,0,1-6.891,6.892h-.9a6.894,6.894,0,0,1-6.891-6.892V258.427h5.37v41.811a1.508,1.508,0,0,0,1.521,1.522h.9a1.509,1.509,0,0,0,1.521-1.522Z" transform="translate(-2.858 -73.056)" fill="#fff"></path>
      <path id="Path_53" data-name="Path 53" d="M272.644,254.175h5.37v41.811a6.894,6.894,0,0,1-6.892,6.892h-.9a6.894,6.894,0,0,1-6.891-6.892V254.175h5.37v41.811a1.508,1.508,0,0,0,1.521,1.522h.9a1.509,1.509,0,0,0,1.522-1.522Z" transform="translate(0 -70.198)" fill="#f40f34"></path>
      <path id="Path_54" data-name="Path 54" d="M325.849,187.608h-9.556v69.631h5.37V220.367h4.186a6.9,6.9,0,0,0,6.892-6.892V194.5A6.838,6.838,0,0,0,325.849,187.608Zm1.229,25.846a1.508,1.508,0,0,1-1.521,1.521h-4.186V192.956h4.186a1.456,1.456,0,0,1,1.521,1.521Z" transform="translate(-35.596 -25.454)" fill="#f40f34"></path>
      <path id="Path_55" data-name="Path 55" d="M356.137,298.657v4.922H351.3v7.533h4.833v4.923H351.3v17.241h-5.37V298.657Z" transform="translate(-55.519 -100.097)" fill="#f40f34"></path>
      <path id="Path_56" data-name="Path 56" d="M394.329,254.468a8.3,8.3,0,0,0-2.775-5.459,6.781,6.781,0,0,0,4.565-6.444V231.312a6.838,6.838,0,0,0-6.892-6.892h-7.7v58.957h5.37V251.425a3.239,3.239,0,0,1,2.059,2.685l2.864,29.267h5.46Zm-5.722-12.352a1.508,1.508,0,0,1-1.522,1.521h-2.327V227.551h2.327a1.457,1.457,0,0,1,1.522,1.522Z" transform="translate(-79.446 -50.198)" fill="#f40f34"></path>
      <path id="Path_57" data-name="Path 57" d="M439.827,273.786h-.806a6.894,6.894,0,0,0-6.891,6.892v29.884a6.894,6.894,0,0,0,6.891,6.892h.806a6.838,6.838,0,0,0,6.892-6.892V280.678A6.838,6.838,0,0,0,439.827,273.786Zm.2,35.635a1.457,1.457,0,0,1-1.522,1.522H437.7a1.509,1.509,0,0,1-1.522-1.522V279.536a1.508,1.508,0,0,1,1.522-1.521h.805a1.456,1.456,0,0,1,1.522,1.521Z" transform="translate(-113.456 -83.379)" fill="#f40f34"></path>
      <path id="Path_58" data-name="Path 58" d="M492.405,217.908h5.37V279h-5.012l-6.981-36.466L486.767,279H481.4V217.908h4.922l6.981,38.6Z" transform="translate(-146.572 -45.82)" fill="#f40f34"></path>
      <path id="Path_59" data-name="Path 59" d="M535.391,264.7h16.537v7.71H548.2V310.45h-9.087V272.409h-3.725Z" transform="translate(-182.864 -77.271)" fill="#f40f34"></path>
      <path id="Path_60" data-name="Path 60" d="M351.885,294.4v4.922h-4.833v7.532h4.833v4.923h-4.833v17.241h-5.37V294.4Z" transform="translate(-52.661 -97.239)" fill="#fff"></path>
      <path id="Path_61" data-name="Path 61" d="M390.077,250.216a8.3,8.3,0,0,0-2.774-5.459,6.782,6.782,0,0,0,4.564-6.444V227.06a6.838,6.838,0,0,0-6.892-6.892h-7.7v58.957h5.37V247.173a3.239,3.239,0,0,1,2.058,2.685l2.864,29.267h5.46Zm-4.328-10.958a1.508,1.508,0,0,1-1.521,1.521H381.9V224.693h2.327a1.457,1.457,0,0,1,1.521,1.522Z" transform="translate(-76.588 -47.34)" fill="#fff"></path>
      <path id="Path_62" data-name="Path 62" d="M435.575,269.534h-.806a6.894,6.894,0,0,0-6.891,6.892V306.31a6.894,6.894,0,0,0,6.891,6.892h.806a6.838,6.838,0,0,0,6.892-6.892V276.426A6.838,6.838,0,0,0,435.575,269.534Zm1.6,37.029a1.456,1.456,0,0,1-1.522,1.522h-.805a1.508,1.508,0,0,1-1.521-1.522V276.678a1.508,1.508,0,0,1,1.521-1.521h.805a1.456,1.456,0,0,1,1.522,1.521Z" transform="translate(-110.599 -80.521)" fill="#fff"></path>
      <path id="Path_63" data-name="Path 63" d="M488.153,213.656h5.37v61.091h-5.012l-6.981-36.466.984,36.466h-5.37V213.656h4.922l6.981,38.6Z" transform="translate(-143.714 -42.962)" fill="#fff"></path>
      <path id="Path_64" data-name="Path 64" d="M531.139,260.447h16.536v7.71h-3.725V306.2h-9.087V268.157h-3.724Z" transform="translate(-180.006 -74.413)" fill="#fff"></path>
      <path id="Path_197" data-name="Path 197" d="M1.867-6.429v2.873H1.15v-7.339H2.967a1.47,1.47,0,0,1,1.249.612A2.674,2.674,0,0,1,4.67-8.652a2.66,2.66,0,0,1-.433,1.631,1.492,1.492,0,0,1-1.22.592Zm0-.791h1.1A.836.836,0,0,0,3.7-7.588a1.841,1.841,0,0,0,.255-1.053A1.9,1.9,0,0,0,3.691-9.7a.82.82,0,0,0-.721-.4h-1.1ZM7.635-3.556a2.459,2.459,0,0,1-.09-.595,1.08,1.08,0,0,1-.94.7,1.074,1.074,0,0,1-.9-.416,1.871,1.871,0,0,1-.323-1.172,1.9,1.9,0,0,1,.439-1.321,1.563,1.563,0,0,1,1.2-.5h.509v-.58a1.113,1.113,0,0,0-.168-.7.623.623,0,0,0-.513-.207.627.627,0,0,0-.509.239.928.928,0,0,0-.2.607H5.454a1.752,1.752,0,0,1,.192-.8,1.526,1.526,0,0,1,.517-.6,1.277,1.277,0,0,1,.724-.217,1.2,1.2,0,0,1,.989.416,1.912,1.912,0,0,1,.347,1.212V-4.73a4.2,4.2,0,0,0,.133,1.094v.081Zm-.924-.711A.775.775,0,0,0,7.2-4.448,1.051,1.051,0,0,0,7.533-4.9V-6.2H7.142a1.112,1.112,0,0,0-.779.285,1.016,1.016,0,0,0-.286.769,1.208,1.208,0,0,0,.145.673A.553.553,0,0,0,6.711-4.267Zm4.335-3.906a1.322,1.322,0,0,0-.313-.035q-.533,0-.744.751v3.9H9.3V-9.01h.674l.012.554q.278-.655.787-.655a.5.5,0,0,1,.274.071Zm1.794-2.157V-9.01h.638v.721h-.638v3.382a1.139,1.139,0,0,0,.082.489.289.289,0,0,0,.282.166.7.7,0,0,0,.278-.06l-.008.756a1.211,1.211,0,0,1-.482.1.683.683,0,0,1-.627-.378A2.18,2.18,0,0,1,12.15-4.9V-8.289H11.5V-9.01h.646V-10.33Zm3.152,3.8a3.435,3.435,0,0,1,.448-1.883,1.358,1.358,0,0,1,1.185-.693,1.365,1.365,0,0,1,1.185.675,3.354,3.354,0,0,1,.46,1.84v.575a3.423,3.423,0,0,1-.446,1.875,1.361,1.361,0,0,1-1.19.691,1.358,1.358,0,0,1-1.181-.67,3.331,3.331,0,0,1-.46-1.815Zm.693.514A2.839,2.839,0,0,0,16.942-4.7a.773.773,0,0,0,.691.481q.916,0,.944-1.7v-.615a2.84,2.84,0,0,0-.258-1.323.777.777,0,0,0-.693-.486.768.768,0,0,0-.683.486,2.845,2.845,0,0,0-.257,1.318Zm3.783,2.465V-8.289h-.552V-9.01h.552v-.63a2.359,2.359,0,0,1,.327-1.3,1.014,1.014,0,0,1,.891-.466,1.11,1.11,0,0,1,.419.086l-.035.756a1.082,1.082,0,0,0-.317-.045q-.591,0-.591,1.084v.514h.724v.721h-.724v4.733ZM28.21-5.885a3.193,3.193,0,0,1-.515,1.8,1.554,1.554,0,0,1-1.322.625,1.534,1.534,0,0,1-1.363-.839,4.4,4.4,0,0,1-.505-2.276V-7.9a4.252,4.252,0,0,1,.519-2.263A1.6,1.6,0,0,1,26.44-11a1.476,1.476,0,0,1,1.279.638,3.318,3.318,0,0,1,.491,1.822h-.724a2.743,2.743,0,0,0-.294-1.28.833.833,0,0,0-.752-.383.977.977,0,0,0-.9.587,3.749,3.749,0,0,0-.313,1.721v1.346a3.984,3.984,0,0,0,.292,1.709.919.919,0,0,0,.852.595A.909.909,0,0,0,27.18-4.6a2.713,2.713,0,0,0,.305-1.285Zm3.055,2.329a2.459,2.459,0,0,1-.09-.595,1.08,1.08,0,0,1-.94.7,1.074,1.074,0,0,1-.9-.416,1.871,1.871,0,0,1-.323-1.172,1.9,1.9,0,0,1,.439-1.321,1.563,1.563,0,0,1,1.2-.5h.509v-.58a1.113,1.113,0,0,0-.168-.7.623.623,0,0,0-.513-.207.627.627,0,0,0-.509.239.928.928,0,0,0-.2.607h-.693a1.752,1.752,0,0,1,.192-.8,1.526,1.526,0,0,1,.517-.6,1.277,1.277,0,0,1,.724-.217,1.2,1.2,0,0,1,.989.416,1.912,1.912,0,0,1,.347,1.212V-4.73a4.2,4.2,0,0,0,.133,1.094v.081Zm-.924-.711a.775.775,0,0,0,.486-.181,1.051,1.051,0,0,0,.337-.454V-6.2h-.392a1.112,1.112,0,0,0-.779.285,1.016,1.016,0,0,0-.286.769,1.208,1.208,0,0,0,.145.673A.553.553,0,0,0,30.341-4.267Zm3.493-6.064V-9.01h.638v.721h-.638v3.382a1.139,1.139,0,0,0,.082.489.289.289,0,0,0,.282.166.7.7,0,0,0,.278-.06l-.008.756a1.211,1.211,0,0,1-.482.1.683.683,0,0,1-.627-.378A2.18,2.18,0,0,1,33.144-4.9V-8.289H32.5V-9.01h.646V-10.33Zm3.642,6.774a2.459,2.459,0,0,1-.09-.595,1.08,1.08,0,0,1-.94.7,1.074,1.074,0,0,1-.9-.416,1.871,1.871,0,0,1-.323-1.172,1.9,1.9,0,0,1,.439-1.321,1.563,1.563,0,0,1,1.2-.5h.509v-.58a1.113,1.113,0,0,0-.168-.7.623.623,0,0,0-.513-.207.627.627,0,0,0-.509.239.928.928,0,0,0-.2.607h-.693a1.752,1.752,0,0,1,.192-.8,1.526,1.526,0,0,1,.517-.6,1.277,1.277,0,0,1,.724-.217,1.2,1.2,0,0,1,.989.416,1.912,1.912,0,0,1,.347,1.212V-4.73A4.2,4.2,0,0,0,38.2-3.637v.081Zm-.924-.711a.775.775,0,0,0,.486-.181,1.051,1.051,0,0,0,.337-.454V-6.2h-.392a1.112,1.112,0,0,0-.779.285,1.016,1.016,0,0,0-.286.769,1.208,1.208,0,0,0,.145.673A.553.553,0,0,0,36.551-4.267Zm3.333.711h-.693V-11.3h.693Zm2.248-1.482L42.9-9.01h.736L42.253-2.785a2.685,2.685,0,0,1-.443,1.066.82.82,0,0,1-.65.365,1.1,1.1,0,0,1-.36-.081V-2.19l.153.02a.611.611,0,0,0,.472-.184,1.435,1.435,0,0,0,.276-.638l.137-.61L40.593-9.01h.756Zm4.241.086a.757.757,0,0,0-.168-.494,2.452,2.452,0,0,0-.65-.484,4,4,0,0,1-.789-.509,1.382,1.382,0,0,1-.343-.481,1.65,1.65,0,0,1-.114-.643,1.64,1.64,0,0,1,.378-1.106,1.215,1.215,0,0,1,.965-.441,1.217,1.217,0,0,1,.995.464,1.828,1.828,0,0,1,.376,1.19h-.689a1.026,1.026,0,0,0-.192-.628.585.585,0,0,0-.49-.26.6.6,0,0,0-.48.2A.814.814,0,0,0,45-7.593a.7.7,0,0,0,.127.439,2.209,2.209,0,0,0,.613.439,3.011,3.011,0,0,1,1.05.759,1.523,1.523,0,0,1,.278.94,1.644,1.644,0,0,1-.38,1.137,1.3,1.3,0,0,1-1.018.426A1.335,1.335,0,0,1,44.6-3.944a1.86,1.86,0,0,1-.411-1.24h.7a1.167,1.167,0,0,0,.215.711.688.688,0,0,0,.572.257.672.672,0,0,0,.525-.2A.77.77,0,0,0,46.373-4.952Zm2.5-5.378V-9.01h.638v.721h-.638v3.382a1.139,1.139,0,0,0,.082.489.289.289,0,0,0,.282.166.7.7,0,0,0,.278-.06l-.008.756a1.211,1.211,0,0,1-.482.1.683.683,0,0,1-.627-.378A2.18,2.18,0,0,1,48.186-4.9V-8.289H47.54V-9.01h.646V-10.33Zm6.963,5.862-.125.2a1.781,1.781,0,0,1-1.582.812,1.655,1.655,0,0,1-1.451-.789,4.06,4.06,0,0,1-.538-2.23V-7.916a4.437,4.437,0,0,1,.48-2.311A1.581,1.581,0,0,1,54.056-11a1.532,1.532,0,0,1,1.275.585,2.853,2.853,0,0,1,.507,1.668h-.717a2.2,2.2,0,0,0-.3-1.071.853.853,0,0,0-.766-.386.957.957,0,0,0-.9.517,3.655,3.655,0,0,0-.3,1.651v1.5a3.561,3.561,0,0,0,.329,1.7,1.031,1.031,0,0,0,.944.592,1.08,1.08,0,0,0,.881-.363l.106-.126V-6.424H54.08V-7.21h1.758Zm2.824-3.7a1.322,1.322,0,0,0-.313-.035q-.533,0-.744.751v3.9h-.693V-9.01h.674l.012.554q.278-.655.787-.655a.5.5,0,0,1,.274.071Zm.466,1.638a3.435,3.435,0,0,1,.448-1.883,1.358,1.358,0,0,1,1.185-.693,1.365,1.365,0,0,1,1.185.675,3.354,3.354,0,0,1,.46,1.84v.575a3.423,3.423,0,0,1-.446,1.875,1.361,1.361,0,0,1-1.19.691,1.358,1.358,0,0,1-1.181-.67,3.331,3.331,0,0,1-.46-1.815Zm.693.514A2.839,2.839,0,0,0,60.077-4.7a.773.773,0,0,0,.691.481q.916,0,.944-1.7v-.615a2.84,2.84,0,0,0-.258-1.323.777.777,0,0,0-.693-.486.768.768,0,0,0-.683.486,2.845,2.845,0,0,0-.257,1.318ZM65.46-4.035a1.1,1.1,0,0,1-1.006.58.944.944,0,0,1-.869-.512,3.067,3.067,0,0,1-.3-1.489V-9.01h.689v3.488q0,1.275.6,1.275a.891.891,0,0,0,.869-.726V-9.01h.693v5.454h-.658Zm4.778-1.986a4.011,4.011,0,0,1-.362,1.93,1.127,1.127,0,0,1-1.024.635,1.076,1.076,0,0,1-.983-.62v2.616h-.689V-9.01h.627l.035.6a1.087,1.087,0,0,1,1-.706,1.118,1.118,0,0,1,1.042.625,4.063,4.063,0,0,1,.356,1.87Zm-.689-.509a3.158,3.158,0,0,0-.219-1.353.736.736,0,0,0-.7-.436q-.5,0-.756.64v2.838q.255.625.764.625a.728.728,0,0,0,.691-.436,3.1,3.1,0,0,0,.225-1.333Z" transform="translate(280.023 250.672)" fill="#fff"></path>
    </g>
  </g>
</svg>
